ffmpeg started on 2025-06-06 at 16:25:39
Report written to "D:\Convert\FFMetrics\reports\psnr_report-6.txt"
Log level: 32
Command line:
ffmpeg -hide_banner -nostdin -i "G:\\\xc0\xed\xe8\xec\xe5\\\xce\xed\xe3\xee\xe8\xed\xe3\xe8\\!_36_\xce\xf1\xe5\xed\xfc_2024\\DreamCast\\\xcf\xe5\xf0\xe5\xf0\xee\xe6\xe4\xe5\xed\xe8\xe5 \xe2 \xe0\xf0\xe8\xf1\xf2\xee\xea\xf0\xe0\xf2\xe0 \xf1\xee \xf1\xef\xee\xf1\xee\xe1\xed\xee\xf1\xf2\xfc\xfe \xe0\xed\xe0\xeb\xe8\xe7\xe0\\\xd2\xc2-2\\DC_Tensei_Kizoku_Kantei_Skill_de_Nariagaru_S2_08_Telegram_HEVC.mkv" -i "G:\\\xc0\xed\xe8\xec\xe5\\\xce\xed\xe3\xee\xe8\xed\xe3\xe8\\!_36_\xce\xf1\xe5\xed\xfc_2024\\DreamCast\\\xcf\xe5\xf0\xe5\xf0\xee\xe6\xe4\xe5\xed\xe8\xe5 \xe2 \xe0\xf0\xe8\xf1\xf2\xee\xea\xf0\xe0\xf2\xe0 \xf1\xee \xf1\xef\xee\xf1\xee\xe1\xed\xee\xf1\xf2\xfc\xfe \xe0\xed\xe0\xeb\xe8\xe7\xe0\\\xd2\xc2-2\\DC_Tensei_Kizoku_Kantei_Skill_de_Nariagaru_S2_08_Telegram.mp4" -lavfi "[0:v]settb=AVTB,setpts=PTS-STARTPTS,format=pix_fmts=yuv420p10,fps=24000/1001,scale=1920:1080:flags=bicubic[main];[1:v]settb=AVTB,setpts=PTS-STARTPTS,format=pix_fmts=yuv420p,fps=24000/1001,scale=1920:1080:flags=bicubic[ref];[main][ref]psnr=eof_action=endall:stats_file='D\\:/Convert/FFMetrics/logs/psnr_logfile-6.txt'" -f null -
Input #0, matroska,webm, from 'G:\Аниме\Онгоинги\!_36_Осень_2024\DreamCast\Перерождение в аристократа со способностью анализа\ТВ-2\DC_Tensei_Kizoku_Kantei_Skill_de_Nariagaru_S2_08_Telegram_HEVC.mkv':
  Metadata:
    COMPATIBLE_BRANDS: isomiso2avc1mp41
    MAJOR_BRAND     : isom
    MINOR_VERSION   : 512
    ENCODER         : Lavf61.7.100
  Duration: 00:23:47.37, start: -0.021000, bitrate: 1304 kb/s
  Stream #0:0: Video: hevc (Main 10), yuv420p10le(tv, bt709, progressive), 1920x1080 [SAR 1:1 DAR 16:9], 23.98 fps, 23.98 tbr, 1k tbn (default)
      Metadata:
        HANDLER_NAME    : VideoHandler
        VENDOR_ID       : [0][0][0][0]
        ENCODER         : Lavc61.19.100 libx265
        BPS             : 1107413
        DURATION        : 00:23:46.549708333
        NUMBER_OF_FRAMES: 34203
        NUMBER_OF_BYTES : 197472401
        _STATISTICS_WRITING_APP: mkvpropedit v66.0.0 ('Josie') 64-bit
        _STATISTICS_WRITING_DATE_UTC: 2025-06-02 10:22:47
        _STATISTICS_TAGS: BPS DURATION NUMBER_OF_FRAMES NUMBER_OF_BYTES
  Stream #0:1: Audio: aac (LC), 48000 Hz, stereo, fltp (default)
      Metadata:
        HANDLER_NAME    : SoundHandler
        VENDOR_ID       : [0][0][0][0]
        ENCODER         : Lavc61.19.100 aac
        BPS             : 193790
        DURATION        : 00:23:47.370000000
        NUMBER_OF_FRAMES: 66909
        NUMBER_OF_BYTES : 34576390
        _STATISTICS_WRITING_APP: mkvpropedit v66.0.0 ('Josie') 64-bit
        _STATISTICS_WRITING_DATE_UTC: 2025-06-02 10:22:47
        _STATISTICS_TAGS: BPS DURATION NUMBER_OF_FRAMES NUMBER_OF_BYTES
Input #1, mov,mp4,m4a,3gp,3g2,mj2, from 'G:\Аниме\Онгоинги\!_36_Осень_2024\DreamCast\Перерождение в аристократа со способностью анализа\ТВ-2\DC_Tensei_Kizoku_Kantei_Skill_de_Nariagaru_S2_08_Telegram.mp4':
  Metadata:
    major_brand     : isom
    minor_version   : 512
    compatible_brands: isomiso2avc1mp41
    encoder         : Lavf61.1.100
  Duration: 00:23:47.31, start: 0.000000, bitrate: 3717 kb/s
  Stream #1:0[0x1](und): Video: h264 (High) (avc1 / 0x31637661), yuv420p(tv, bt709, progressive), 1920x1080 [SAR 1:1 DAR 16:9], 3571 kb/s, 23.98 fps, 23.98 tbr, 24k tbn (default)
      Metadata:
        handler_name    : VideoHandler
        vendor_id       : [0][0][0][0]
        encoder         : Lavc61.3.100 h264_qsv
  Stream #1:1[0x2](und): Audio: aac (HE-AACv2) (mp4a / 0x6134706D), 48000 Hz, stereo, fltp, 144 kb/s (default)
      Metadata:
        handler_name    : SoundHandler
        vendor_id       : [0][0][0][0]
Stream mapping:
  Stream #0:0 (hevc) -> settb:default
  Stream #1:0 (h264) -> settb:default
  psnr:default -> Stream #0:0 (wrapped_avframe)
  Stream #0:1 -> #0:1 (aac (native) -> pcm_s16le (native))
Output #0, null, to 'pipe:':
  Metadata:
    COMPATIBLE_BRANDS: isomiso2avc1mp41
    MAJOR_BRAND     : isom
    MINOR_VERSION   : 512
    encoder         : Lavf61.7.100
  Stream #0:0: Video: wrapped_avframe, yuv420p10le(tv, bt709, progressive), 1920x1080 [SAR 1:1 DAR 16:9], q=2-31, 200 kb/s, 23.98 fps, 23.98 tbn
      Metadata:
        encoder         : Lavc61.19.100 wrapped_avframe
  Stream #0:1: Audio: pcm_s16le, 48000 Hz, stereo, s16, 1536 kb/s (default)
      Metadata:
        HANDLER_NAME    : SoundHandler
        VENDOR_ID       : [0][0][0][0]
        _STATISTICS_TAGS: BPS DURATION NUMBER_OF_FRAMES NUMBER_OF_BYTES
        BPS             : 193790
        DURATION        : 00:23:47.370000000
        NUMBER_OF_FRAMES: 66909
        NUMBER_OF_BYTES : 34576390
        _STATISTICS_WRITING_APP: mkvpropedit v66.0.0 ('Josie') 64-bit
        _STATISTICS_WRITING_DATE_UTC: 2025-06-02 10:22:47
        encoder         : Lavc61.19.100 pcm_s16le
frame=  156 fps=0.0 q=-0.0 size=N/A time=00:00:06.50 bitrate=N/A speed=12.6x    frame=  376 fps=362 q=-0.0 size=N/A time=00:00:15.68 bitrate=N/A speed=15.1x    frame=  588 fps=377 q=-0.0 size=N/A time=00:00:24.52 bitrate=N/A speed=15.7x    frame=  819 fps=394 q=-0.0 size=N/A time=00:00:34.20 bitrate=N/A speed=16.5x    frame= 1090 fps=422 q=-0.0 size=N/A time=00:00:45.46 bitrate=N/A speed=17.6x    frame= 1347 fps=434 q=-0.0 size=N/A time=00:00:56.18 bitrate=N/A speed=18.1x    frame= 1575 fps=435 q=-0.0 size=N/A time=00:01:05.69 bitrate=N/A speed=18.1x    frame= 1806 fps=437 q=-0.0 size=N/A time=00:01:15.32 bitrate=N/A speed=18.2x    frame= 2066 fps=444 q=-0.0 size=N/A time=00:01:26.16 bitrate=N/A speed=18.5x    frame= 2321 fps=450 q=-0.0 size=N/A time=00:01:36.80 bitrate=N/A speed=18.8x    frame= 2572 fps=452 q=-0.0 size=N/A time=00:01:47.27 bitrate=N/A speed=18.9x    frame= 2753 fps=444 q=-0.0 size=N/A time=00:01:54.82 bitrate=N/A speed=18.5x    frame= 2931 fps=437 q=-0.0 size=N/A time=00:02:02.24 bitrate=N/A speed=18.2x    frame= 3113 fps=431 q=-0.0 size=N/A time=00:02:09.83 bitrate=N/A speed=  18x    frame= 3305 fps=427 q=-0.0 size=N/A time=00:02:17.84 bitrate=N/A speed=17.8x    frame= 3431 fps=416 q=-0.0 size=N/A time=00:02:23.10 bitrate=N/A speed=17.3x    frame= 3613 fps=412 q=-0.0 size=N/A time=00:02:30.69 bitrate=N/A speed=17.2x    frame= 3772 fps=406 q=-0.0 size=N/A time=00:02:37.32 bitrate=N/A speed=16.9x    frame= 3959 fps=404 q=-0.0 size=N/A time=00:02:45.12 bitrate=N/A speed=16.8x    frame= 4143 fps=401 q=-0.0 size=N/A time=00:02:52.79 bitrate=N/A speed=16.7x    frame= 4311 fps=398 q=-0.0 size=N/A time=00:02:59.80 bitrate=N/A speed=16.6x    frame= 4491 fps=395 q=-0.0 size=N/A time=00:03:07.31 bitrate=N/A speed=16.5x    frame= 4672 fps=394 q=-0.0 size=N/A time=00:03:14.86 bitrate=N/A speed=16.4x    frame= 4878 fps=394 q=-0.0 size=N/A time=00:03:23.45 bitrate=N/A speed=16.4x    frame= 5065 fps=393 q=-0.0 size=N/A time=00:03:31.25 bitrate=N/A speed=16.4x    frame= 5268 fps=393 q=-0.0 size=N/A time=00:03:39.71 bitrate=N/A speed=16.4x    frame= 5470 fps=393 q=-0.0 size=N/A time=00:03:48.14 bitrate=N/A speed=16.4x    frame= 5668 fps=392 q=-0.0 size=N/A time=00:03:56.40 bitrate=N/A speed=16.4x    frame= 5889 fps=393 q=-0.0 size=N/A time=00:04:05.62 bitrate=N/A speed=16.4x    frame= 6148 fps=397 q=-0.0 size=N/A time=00:04:16.42 bitrate=N/A speed=16.6x    frame= 6407 fps=400 q=-0.0 size=N/A time=00:04:27.22 bitrate=N/A speed=16.7x    frame= 6628 fps=401 q=-0.0 size=N/A time=00:04:36.44 bitrate=N/A speed=16.7x    frame= 6840 fps=402 q=-0.0 size=N/A time=00:04:45.28 bitrate=N/A speed=16.8x    frame= 7088 fps=404 q=-0.0 size=N/A time=00:04:55.62 bitrate=N/A speed=16.9x    frame= 7275 fps=403 q=-0.0 size=N/A time=00:05:03.42 bitrate=N/A speed=16.8x    frame= 7445 fps=401 q=-0.0 size=N/A time=00:05:10.51 bitrate=N/A speed=16.7x    frame= 7636 fps=400 q=-0.0 size=N/A time=00:05:18.48 bitrate=N/A speed=16.7x    frame= 7879 fps=402 q=-0.0 size=N/A time=00:05:28.61 bitrate=N/A speed=16.8x    frame= 8086 fps=402 q=-0.0 size=N/A time=00:05:37.25 bitrate=N/A speed=16.8x    frame= 8276 fps=401 q=-0.0 size=N/A time=00:05:45.17 bitrate=N/A speed=16.7x    frame= 8458 fps=400 q=-0.0 size=N/A time=00:05:52.76 bitrate=N/A speed=16.7x    frame= 8606 fps=397 q=-0.0 size=N/A time=00:05:58.94 bitrate=N/A speed=16.6x    frame= 8816 fps=397 q=-0.0 size=N/A time=00:06:07.70 bitrate=N/A speed=16.6x    frame= 9090 fps=400 q=-0.0 size=N/A time=00:06:19.12 bitrate=N/A speed=16.7x    frame= 9301 fps=400 q=-0.0 size=N/A time=00:06:27.92 bitrate=N/A speed=16.7x    frame= 9517 fps=401 q=-0.0 size=N/A time=00:06:36.93 bitrate=N/A speed=16.7x    frame= 9686 fps=399 q=-0.0 size=N/A time=00:06:43.98 bitrate=N/A speed=16.6x    frame= 9886 fps=399 q=-0.0 size=N/A time=00:06:52.32 bitrate=N/A speed=16.6x    frame=10100 fps=399 q=-0.0 size=N/A time=00:07:01.25 bitrate=N/A speed=16.6x    frame=10295 fps=399 q=-0.0 size=N/A time=00:07:09.38 bitrate=N/A speed=16.6x    frame=10498 fps=399 q=-0.0 size=N/A time=00:07:17.85 bitrate=N/A speed=16.6x    frame=10709 fps=399 q=-0.0 size=N/A time=00:07:26.65 bitrate=N/A speed=16.6x    frame=10923 fps=399 q=-0.0 size=N/A time=00:07:35.58 bitrate=N/A speed=16.6x    frame=11109 fps=398 q=-0.0 size=N/A time=00:07:43.33 bitrate=N/A speed=16.6x    frame=11297 fps=398 q=-0.0 size=N/A time=00:07:51.17 bitrate=N/A speed=16.6x    frame=11560 fps=400 q=-0.0 size=N/A time=00:08:02.14 bitrate=N/A speed=16.7x    frame=11772 fps=400 q=-0.0 size=N/A time=00:08:10.99 bitrate=N/A speed=16.7x    frame=12020 fps=401 q=-0.0 size=N/A time=00:08:21.33 bitrate=N/A speed=16.7x    frame=12240 fps=402 q=-0.0 size=N/A time=00:08:30.51 bitrate=N/A speed=16.8x    frame=12454 fps=402 q=-0.0 size=N/A time=00:08:39.43 bitrate=N/A speed=16.8x    frame=12643 fps=402 q=-0.0 size=N/A time=00:08:47.31 bitrate=N/A speed=16.7x    frame=12836 fps=401 q=-0.0 size=N/A time=00:08:55.36 bitrate=N/A speed=16.7x    frame=13036 fps=401 q=-0.0 size=N/A time=00:09:03.70 bitrate=N/A speed=16.7x    frame=13272 fps=402 q=-0.0 size=N/A time=00:09:13.55 bitrate=N/A speed=16.8x    frame=13486 fps=402 q=-0.0 size=N/A time=00:09:22.47 bitrate=N/A speed=16.8x    frame=13697 fps=402 q=-0.0 size=N/A time=00:09:31.27 bitrate=N/A speed=16.8x    frame=13905 fps=402 q=-0.0 size=N/A time=00:09:39.95 bitrate=N/A speed=16.8x    frame=14151 fps=403 q=-0.0 size=N/A time=00:09:50.21 bitrate=N/A speed=16.8x    frame=14347 fps=403 q=-0.0 size=N/A time=00:09:58.38 bitrate=N/A speed=16.8x    frame=14567 fps=403 q=-0.0 size=N/A time=00:10:07.56 bitrate=N/A speed=16.8x    frame=14722 fps=402 q=-0.0 size=N/A time=00:10:14.03 bitrate=N/A speed=16.8x    frame=14941 fps=402 q=-0.0 size=N/A time=00:10:23.16 bitrate=N/A speed=16.8x    frame=15191 fps=403 q=-0.0 size=N/A time=00:10:33.59 bitrate=N/A speed=16.8x    frame=15435 fps=404 q=-0.0 size=N/A time=00:10:43.76 bitrate=N/A speed=16.9x    frame=15695 fps=405 q=-0.0 size=N/A time=00:10:54.61 bitrate=N/A speed=16.9x    frame=15927 fps=406 q=-0.0 size=N/A time=00:11:04.28 bitrate=N/A speed=16.9x    frame=16132 fps=406 q=-0.0 size=N/A time=00:11:12.83 bitrate=N/A speed=16.9x    frame=16318 fps=405 q=-0.0 size=N/A time=00:11:20.59 bitrate=N/A speed=16.9x    frame=16542 fps=406 q=-0.0 size=N/A time=00:11:29.93 bitrate=N/A speed=16.9x    frame=16762 fps=406 q=-0.0 size=N/A time=00:11:39.11 bitrate=N/A speed=16.9x    frame=16999 fps=407 q=-0.0 size=N/A time=00:11:48.99 bitrate=N/A speed=  17x    frame=17232 fps=407 q=-0.0 size=N/A time=00:11:58.71 bitrate=N/A speed=  17x    frame=17458 fps=408 q=-0.0 size=N/A time=00:12:08.14 bitrate=N/A speed=  17x    frame=17715 fps=409 q=-0.0 size=N/A time=00:12:18.86 bitrate=N/A speed=  17x    frame=17931 fps=409 q=-0.0 size=N/A time=00:12:27.87 bitrate=N/A speed=  17x    frame=18145 fps=409 q=-0.0 size=N/A time=00:12:36.79 bitrate=N/A speed=  17x    frame=18379 fps=409 q=-0.0 size=N/A time=00:12:46.55 bitrate=N/A speed=17.1x    frame=18596 fps=409 q=-0.0 size=N/A time=00:12:55.60 bitrate=N/A speed=17.1x    frame=18853 fps=411 q=-0.0 size=N/A time=00:13:06.32 bitrate=N/A speed=17.1x    frame=19095 fps=411 q=-0.0 size=N/A time=00:13:16.42 bitrate=N/A speed=17.1x    frame=19343 fps=412 q=-0.0 size=N/A time=00:13:26.76 bitrate=N/A speed=17.2x    frame=19590 fps=413 q=-0.0 size=N/A time=00:13:37.06 bitrate=N/A speed=17.2x    frame=19834 fps=413 q=-0.0 size=N/A time=00:13:47.24 bitrate=N/A speed=17.2x    frame=20074 fps=414 q=-0.0 size=N/A time=00:13:57.25 bitrate=N/A speed=17.3x    frame=20342 fps=415 q=-0.0 size=N/A time=00:14:08.43 bitrate=N/A speed=17.3x    frame=20600 fps=416 q=-0.0 size=N/A time=00:14:19.19 bitrate=N/A speed=17.3x    frame=20834 fps=416 q=-0.0 size=N/A time=00:14:28.95 bitrate=N/A speed=17.4x    frame=21070 fps=417 q=-0.0 size=N/A time=00:14:38.79 bitrate=N/A speed=17.4x    frame=21344 fps=418 q=-0.0 size=N/A time=00:14:50.22 bitrate=N/A speed=17.4x    frame=21598 fps=419 q=-0.0 size=N/A time=00:15:00.81 bitrate=N/A speed=17.5x    frame=21870 fps=420 q=-0.0 size=N/A time=00:15:12.16 bitrate=N/A speed=17.5x    frame=22140 fps=421 q=-0.0 size=N/A time=00:15:23.42 bitrate=N/A speed=17.5x    frame=22352 fps=421 q=-0.0 size=N/A time=00:15:32.26 bitrate=N/A speed=17.5x    frame=22625 fps=422 q=-0.0 size=N/A time=00:15:43.65 bitrate=N/A speed=17.6x    frame=22866 fps=422 q=-0.0 size=N/A time=00:15:53.70 bitrate=N/A speed=17.6x    frame=23109 fps=423 q=-0.0 size=N/A time=00:16:03.83 bitrate=N/A speed=17.6x    frame=23352 fps=423 q=-0.0 size=N/A time=00:16:13.97 bitrate=N/A speed=17.6x    frame=23611 fps=424 q=-0.0 size=N/A time=00:16:24.77 bitrate=N/A speed=17.7x    frame=23835 fps=424 q=-0.0 size=N/A time=00:16:34.11 bitrate=N/A speed=17.7x    frame=24084 fps=424 q=-0.0 size=N/A time=00:16:44.50 bitrate=N/A speed=17.7x    frame=24323 fps=425 q=-0.0 size=N/A time=00:16:54.47 bitrate=N/A speed=17.7x    frame=24579 fps=425 q=-0.0 size=N/A time=00:17:05.14 bitrate=N/A speed=17.7x    frame=24814 fps=426 q=-0.0 size=N/A time=00:17:14.95 bitrate=N/A speed=17.7x    frame=25060 fps=426 q=-0.0 size=N/A time=00:17:25.21 bitrate=N/A speed=17.8x    frame=25291 fps=426 q=-0.0 size=N/A time=00:17:34.84 bitrate=N/A speed=17.8x    frame=25531 fps=427 q=-0.0 size=N/A time=00:17:44.85 bitrate=N/A speed=17.8x    frame=25743 fps=426 q=-0.0 size=N/A time=00:17:53.69 bitrate=N/A speed=17.8x    frame=25986 fps=427 q=-0.0 size=N/A time=00:18:03.83 bitrate=N/A speed=17.8x    frame=26254 fps=428 q=-0.0 size=N/A time=00:18:15.01 bitrate=N/A speed=17.8x    frame=26507 fps=428 q=-0.0 size=N/A time=00:18:25.56 bitrate=N/A speed=17.9x    frame=26776 fps=429 q=-0.0 size=N/A time=00:18:36.78 bitrate=N/A speed=17.9x    frame=27022 fps=429 q=-0.0 size=N/A time=00:18:47.04 bitrate=N/A speed=17.9x    frame=27287 fps=430 q=-0.0 size=N/A time=00:18:58.09 bitrate=N/A speed=17.9x    frame=27542 fps=431 q=-0.0 size=N/A time=00:19:08.73 bitrate=N/A speed=  18x    frame=27788 fps=431 q=-0.0 size=N/A time=00:19:18.99 bitrate=N/A speed=  18x    frame=28028 fps=431 q=-0.0 size=N/A time=00:19:29.00 bitrate=N/A speed=  18x    frame=28248 fps=431 q=-0.0 size=N/A time=00:19:38.17 bitrate=N/A speed=  18x    frame=28492 fps=431 q=-0.0 size=N/A time=00:19:48.35 bitrate=N/A speed=  18x    frame=28738 fps=432 q=-0.0 size=N/A time=00:19:58.61 bitrate=N/A speed=  18x    frame=28995 fps=432 q=-0.0 size=N/A time=00:20:09.33 bitrate=N/A speed=  18x    frame=29234 fps=433 q=-0.0 size=N/A time=00:20:19.30 bitrate=N/A speed=  18x    frame=29479 fps=433 q=-0.0 size=N/A time=00:20:29.51 bitrate=N/A speed=18.1x    frame=29739 fps=433 q=-0.0 size=N/A time=00:20:40.36 bitrate=N/A speed=18.1x    frame=30016 fps=434 q=-0.0 size=N/A time=00:20:51.91 bitrate=N/A speed=18.1x    frame=30279 fps=435 q=-0.0 size=N/A time=00:21:02.88 bitrate=N/A speed=18.1x    frame=30534 fps=435 q=-0.0 size=N/A time=00:21:13.52 bitrate=N/A speed=18.2x    frame=30802 fps=436 q=-0.0 size=N/A time=00:21:24.70 bitrate=N/A speed=18.2x    frame=31064 fps=436 q=-0.0 size=N/A time=00:21:35.62 bitrate=N/A speed=18.2x    frame=31307 fps=437 q=-0.0 size=N/A time=00:21:45.76 bitrate=N/A speed=18.2x    frame=31551 fps=437 q=-0.0 size=N/A time=00:21:55.93 bitrate=N/A speed=18.2x    frame=31767 fps=437 q=-0.0 size=N/A time=00:22:04.94 bitrate=N/A speed=18.2x    frame=32009 fps=437 q=-0.0 size=N/A time=00:22:15.04 bitrate=N/A speed=18.2x    frame=32281 fps=438 q=-0.0 size=N/A time=00:22:26.38 bitrate=N/A speed=18.2x    frame=32507 fps=438 q=-0.0 size=N/A time=00:22:35.81 bitrate=N/A speed=18.3x    frame=32743 fps=438 q=-0.0 size=N/A time=00:22:45.65 bitrate=N/A speed=18.3x    frame=32959 fps=438 q=-0.0 size=N/A time=00:22:54.66 bitrate=N/A speed=18.3x    frame=33164 fps=437 q=-0.0 size=N/A time=00:23:03.21 bitrate=N/A speed=18.2x    frame=33405 fps=438 q=-0.0 size=N/A time=00:23:13.26 bitrate=N/A speed=18.2x    frame=33627 fps=437 q=-0.0 size=N/A time=00:23:22.52 bitrate=N/A speed=18.2x    frame=33863 fps=438 q=-0.0 size=N/A time=00:23:32.36 bitrate=N/A speed=18.3x    frame=34085 fps=438 q=-0.0 size=N/A time=00:23:41.62 bitrate=N/A speed=18.2x    [Parsed_psnr_10 @ 0000024a7a32d680] PSNR y:47.332090 u:50.395856 v:50.398733 average:48.134828 min:36.275525 max:inf
[out#0/null @ 0000024a77cd5380] video:14697KiB audio:267636KiB subtitle:0KiB other streams:0KiB global headers:0KiB muxing overhead: unknown
frame=34203 fps=438 q=-0.0 Lsize=N/A time=00:23:46.55 bitrate=N/A speed=18.3x    
